# xmcd CD database file
#
# Track frame offsets:
#	150
#	20207
#	39200
#	61688
#	88423
#	105452
#	127460
#	152852
#
# Disc length: 2330 seconds
#
# Revision: 1
# Processed by: cddbd v1.5.2PL0 Copyright (c) Steve Scherf et al.
# Submitted via: CDex 1.70beta2
#
DISCID=6a091808
DTITLE=Rio - 空き地がなくなっちゃった
DYEAR=2006
DGENRE=Blues
TTITLE0=歌舞伎者
TTITLE1=愛隣狂想曲
TTITLE2=PORFIDIO
TTITLE3=かたじけないね
TTITLE4=Ru-la ru-la
TTITLE5=流離え！カウボーイ
TTITLE6=空き地がなくなっちゃった
TTITLE7=チークを踊ろう
EXTD=YEAR: 2006
EXTT0=
EXTT1=
EXTT2=
EXTT3=
EXTT4=
EXTT5=
EXTT6=
EXTT7=
PLAYORDER=
